<?xml version="1.0" encoding="UTF-8"?><svg id="a" xmlns="http://www.w3.org/2000/svg" viewBox="0 0 48 47"><path d="M48,0h-.4L8.5,34.4l-.4,.2L37.7,0h-1.1L6.6,35l-.6,.2L27.6,0h-1L4.8,35.7l-.8,.3L18.1,0h-1L3,36.4l-.9,.3L9.3,0h-1L1.1,37.1l-1.1,.3v.8l.9-.3-.1,.4-.8,.3v.8l.7-.3-.1,.4-.6,.2v.9l.4-.3-.1,.3-.3,.3v.9l.1-.1v.2l-.1,.1v5l.3-1.3,.9-2.2,1.2-2,1.6-2,2-1.8,2.4-1.7,2.9-1.5,3.3-1.4,33.4-12v-.8l-24.6,8.7,24.6-10.7v-.8l-29.5,12.9L48,14.4v-.9L14.3,32,48,8.9v-.9L10.7,33.6,48,.7V0ZM1.6,39.7l-.3,.2,.1-.1,.2-.1h0Zm.4-1.1l-.4,.3v-.2l.5-.3-.1,.2Zm.5-1.1l-.7,.3v-.3l.8-.3-.1,.3Zm.8,.5h0l.3-.2-.3,.2Zm.8-1.2l-.5,.3v-.2l.5-.1h0Z"/></svg>