<?xml version="1.0" encoding="UTF-8" standalone="no"?>
<!-- Created with Inkscape (http://www.inkscape.org/) -->

<svg
   version="1.1"
   id="svg2"
   width="1122.52"
   height="793.70135"
   viewBox="0 0 1122.52 793.70135"
   sodipodi:docname="LOGO CLARK 2009.ai"
   xmlns:inkscape="http://www.inkscape.org/namespaces/inkscape"
   xmlns:sodipodi="http://sodipodi.sourceforge.net/DTD/sodipodi-0.dtd"
   xmlns="http://www.w3.org/2000/svg"
   xmlns:svg="http://www.w3.org/2000/svg">
  <defs
     id="defs6">
    <clipPath
       clipPathUnits="userSpaceOnUse"
       id="clipPath18">
      <path
         d="M 0,595.276 H 841.89 V 0 H 0 Z"
         id="path16" />
    </clipPath>
  </defs>
  <sodipodi:namedview
     id="namedview4"
     pagecolor="#505050"
     bordercolor="#ffffff"
     borderopacity="1"
     inkscape:showpageshadow="0"
     inkscape:pageopacity="0"
     inkscape:pagecheckerboard="1"
     inkscape:deskcolor="#505050"
     showgrid="true">
    <inkscape:grid
       type="xygrid"
       id="grid330" />
  </sodipodi:namedview>
  <g
     id="g10"
     inkscape:groupmode="layer"
     inkscape:label="Page 1"
     transform="matrix(1.3333333,0,0,-1.3333333,0,793.70133)"
     style="display:inline">
    <g
       id="g12">
      <g
         id="g14"
         clip-path="url(#clipPath18)">
        <path
           d="M 816,50.275 H 26 v 282 h 790 z"
           style="fill:#1a171b;fill-opacity:1;fill-rule:nonzero;stroke:none"
           id="path20" />
        <path
           d="m 217.221,158.924 h 18.14 l -1.124,-6.22 c 4.232,5.702 7.342,7.429 12.957,7.429 5.614,0 8.724,-2.245 10.797,-7.6 3.973,5.699 7.342,7.6 13.474,7.6 8.294,0 12.957,-4.751 12.957,-13.216 0,-1.727 -0.345,-5.182 -0.604,-6.996 l -3.886,-21.767 h -19.176 l 3.715,20.991 c 0.258,1.036 0.344,2.072 0.344,2.675 0,1.729 -1.037,2.938 -2.331,2.938 -2.42,0 -3.542,-1.728 -4.579,-6.996 l -3.714,-19.608 h -19.089 l 3.714,20.558 c 0.259,1.469 0.518,3.196 0.518,3.887 0,1.382 -0.865,2.332 -2.246,2.332 -2.333,0 -3.713,-2.16 -4.665,-7.343 l -3.542,-19.434 h -19.089 z"
           style="fill:#ffffff;fill-opacity:1;fill-rule:nonzero;stroke:none"
           id="path70" />
        <path
           d="m 305.578,137.156 c 0,-2.849 1.556,-4.577 4.061,-4.577 3.454,0 5.786,2.764 5.786,6.737 0,2.851 -1.556,4.493 -4.232,4.493 -3.283,0 -5.615,-2.852 -5.615,-6.653 m 7.947,-14.165 c -4.404,-4.837 -7.343,-6.219 -12.957,-6.219 -9.328,0 -14.684,6.306 -14.684,17.189 0,14.77 9.586,26.432 21.767,26.432 5.356,0 8.291,-1.815 11.488,-6.825 l 1.037,5.356 h 19.089 l -7.342,-40.77 h -19.175 z"
           style="fill:#ffffff;fill-opacity:1;fill-rule:nonzero;stroke:none"
           id="path72" />
        <path
           d="m 357.745,138.625 c 0,-2.937 1.555,-4.665 4.146,-4.665 3.283,0 5.7,2.852 5.7,6.738 0,2.852 -1.555,4.492 -4.232,4.492 -3.368,0 -5.614,-2.678 -5.614,-6.565 m 8.119,-13.907 c -3.715,-4.146 -7.17,-5.786 -12.092,-5.786 -9.59,0 -15.463,6.478 -15.463,17.102 0,13.303 9.415,24.359 20.644,24.359 5.442,0 8.983,-2.161 11.49,-6.824 l 1.035,5.355 h 18.313 l -6.133,-33.342 c -1.555,-8.551 -3.542,-13.734 -6.739,-17.274 -4.231,-4.751 -11.745,-7.429 -20.815,-7.429 -6.394,0 -12.18,1.295 -17.189,3.886 l 6.822,12.006 c 2.421,-1.727 5.529,-2.677 9.07,-2.677 5.528,0 8.294,2.419 10.711,9.675 z"
           style="fill:#ffffff;fill-opacity:1;fill-rule:nonzero;stroke:none"
           id="path74" />
        <path
           d="m 408.184,137.156 c 0,-2.849 1.555,-4.577 4.059,-4.577 3.456,0 5.787,2.764 5.787,6.737 0,2.851 -1.555,4.493 -4.232,4.493 -3.283,0 -5.614,-2.852 -5.614,-6.653 m 7.946,-14.165 c -4.404,-4.837 -7.343,-6.219 -12.957,-6.219 -9.329,0 -14.684,6.306 -14.684,17.189 0,14.77 9.587,26.432 21.768,26.432 5.355,0 8.29,-1.815 11.487,-6.825 l 1.038,5.356 h 19.088 l -7.343,-40.77 h -19.173 z"
           style="fill:#ffffff;fill-opacity:1;fill-rule:nonzero;stroke:none"
           id="path76" />
        <path
           d="m 456.291,143.981 h -14.167 l 2.677,14.943 h 42.412 l -19.779,-25.74 h 14.856 l -2.679,-15.03 H 436.51 Z"
           style="fill:#ffffff;fill-opacity:1;fill-rule:nonzero;stroke:none"
           id="path78" />
        <path
           d="m 512.518,172.053 c 0,-6.132 -5.357,-10.969 -12.178,-10.969 -5.529,0 -9.677,3.973 -9.677,9.415 0,5.701 5.7,10.71 12.181,10.71 5.614,0 9.674,-3.799 9.674,-9.156 m -22.631,-13.129 h 19.088 l -7.341,-40.77 h -19.176 z"
           style="fill:#ffffff;fill-opacity:1;fill-rule:nonzero;stroke:none"
           id="path80" />
        <path
           d="m 512.946,158.924 h 18.226 l -1.124,-5.355 c 3.714,4.923 7.17,6.737 12.956,6.737 7.516,0 12.697,-5.269 12.697,-12.87 0,-1.987 -0.258,-4.837 -0.775,-7.515 l -3.976,-21.767 h -19.174 l 3.714,20.558 c 0.259,1.9 0.345,2.246 0.345,3.108 0,2.075 -0.863,3.198 -2.59,3.198 -2.593,0 -3.973,-2.075 -4.926,-7.256 l -3.541,-19.608 h -19.174 z"
           style="fill:#ffffff;fill-opacity:1;fill-rule:nonzero;stroke:none"
           id="path82" />
        <path
           d="m 586.708,143.549 c -0.432,3.972 -1.556,5.182 -4.49,5.182 -2.939,0 -5.098,-1.9 -5.877,-5.182 z m 14.339,-13.216 c -3.887,-8.379 -12.611,-13.647 -22.544,-13.647 -12.611,0 -21.164,7.687 -21.164,18.917 0,14.079 11.142,24.79 25.827,24.79 12.094,0 20.212,-8.034 20.212,-19.867 0,-1.21 -0.172,-2.42 -0.517,-4.406 h -27.813 c 0.086,-4.578 1.555,-6.391 5.268,-6.391 2.59,0 4.319,1.036 5.616,3.368 z"
           style="fill:#ffffff;fill-opacity:1;fill-rule:nonzero;stroke:none"
           id="path84" />
        <path
           d="m 281.047,165.11 c -8.642,-2.7 -12.423,-3.421 -19.446,-3.421 -24.127,0 -38.892,14.946 -38.892,39.612 0,29.89 19.806,51.316 47.536,51.316 9.182,0 15.843,-1.621 25.928,-6.481 l -5.584,-30.609 c -5.039,3.961 -8.281,5.401 -12.602,5.401 -8.464,0 -15.305,-7.202 -15.305,-16.205 0,-7.383 5.222,-12.963 12.064,-12.963 3.6,0 6.841,0.719 11.703,2.88 z"
           style="fill:#ffffff;fill-opacity:1;fill-rule:nonzero;stroke:none"
           id="path86" />
        <path
           d="m 311.298,293.311 h 39.973 L 328.044,164.75 h -39.972 z"
           style="fill:#ffffff;fill-opacity:1;fill-rule:nonzero;stroke:none"
           id="path88" />
        <path
           d="m 381.522,204.363 c 0,-5.943 3.241,-9.545 8.462,-9.545 7.202,0 12.064,5.764 12.064,14.046 0,5.943 -3.24,9.363 -8.822,9.363 -6.844,0 -11.704,-5.943 -11.704,-13.864 m 16.564,-29.529 c -9.182,-10.084 -15.304,-12.965 -27.008,-12.965 -19.446,0 -30.61,13.145 -30.61,35.831 0,30.79 19.987,55.097 45.375,55.097 11.164,0 17.284,-3.78 23.948,-14.223 l 2.16,11.162 h 39.792 L 436.438,164.75 h -39.972 z"
           style="fill:#ffffff;fill-opacity:1;fill-rule:nonzero;stroke:none"
           id="path90" />
        <path
           d="m 460.39,249.737 h 36.011 l -2.521,-14.585 c 7.204,11.703 13.505,15.665 24.489,15.665 2.52,0 4.86,-0.36 8.642,-1.26 l -6.122,-34.03 c -6.662,2.34 -9.723,3.059 -13.685,3.059 -8.641,0 -13.683,-5.4 -15.664,-16.925 l -6.663,-36.911 h -39.972 z"
           style="fill:#ffffff;fill-opacity:1;fill-rule:nonzero;stroke:none"
           id="path92" />
        <path
           d="m 540.158,293.311 h 39.792 l -13.684,-76.885 22.687,33.311 h 45.374 l -34.21,-41.592 19.266,-43.395 h -42.134 l -13.684,37.271 -6.841,-37.271 h -39.792 z"
           style="fill:#ffffff;fill-opacity:1;fill-rule:nonzero;stroke:none"
           id="path94" />
        <path
           d="m 389.979,111.258 -0.131,-1.055 c -0.031,0.026 -0.057,0.049 -0.077,0.068 -0.021,0.019 -0.039,0.037 -0.054,0.051 -0.461,0.438 -1.008,0.657 -1.643,0.657 -0.543,0 -0.982,-0.181 -1.317,-0.541 -0.334,-0.362 -0.502,-0.837 -0.502,-1.428 0,-0.575 0.163,-1.017 0.491,-1.323 0.327,-0.308 0.798,-0.46 1.414,-0.46 0.502,0 0.939,0.141 1.311,0.427 0.019,0.015 0.042,0.034 0.068,0.054 0.027,0.021 0.058,0.045 0.092,0.07 l -0.137,-1.122 -0.063,-0.022 c -0.536,-0.172 -1.013,-0.258 -1.431,-0.258 -0.817,0 -1.467,0.244 -1.95,0.731 -0.429,0.488 -0.644,1.127 -0.644,1.921 0,0.809 0.226,1.476 0.679,2.001 0.509,0.533 1.164,0.799 1.966,0.799 0.639,0 1.268,-0.182 1.887,-0.548 z m -2.077,1.421 c -1.041,0 -1.932,-0.35 -2.676,-1.045 -0.749,-0.7 -1.122,-1.532 -1.122,-2.494 0,-0.983 0.373,-1.825 1.122,-2.525 0.744,-0.697 1.647,-1.045 2.71,-1.045 1.052,0 1.952,0.347 2.699,1.04 0.745,0.697 1.117,1.537 1.117,2.524 0,0.543 -0.147,1.087 -0.439,1.635 -0.292,0.531 -0.675,0.951 -1.15,1.256 -0.672,0.435 -1.426,0.654 -2.261,0.654 m 4.6,-3.546 c 0,-1.225 -0.445,-2.266 -1.336,-3.125 -0.892,-0.858 -1.969,-1.287 -3.232,-1.287 -1.265,0 -2.346,0.43 -3.245,1.293 -0.891,0.858 -1.336,1.902 -1.336,3.13 0,0.661 0.145,1.28 0.434,1.858 0.289,0.592 0.697,1.096 1.222,1.513 0.853,0.675 1.81,1.013 2.873,1.013 0.685,0 1.323,-0.128 1.913,-0.384 0.811,-0.339 1.464,-0.878 1.959,-1.617 0.499,-0.742 0.748,-1.54 0.748,-2.394"
           style="fill:#ffffff;fill-opacity:1;fill-rule:nonzero;stroke:none"
           id="path96" />
        <path
           d="m 394.447,105.491 c 0,-0.207 -0.065,-0.387 -0.194,-0.541 -0.128,-0.153 -0.278,-0.229 -0.448,-0.229 -0.173,0 -0.321,0.078 -0.444,0.235 -0.122,0.156 -0.183,0.349 -0.183,0.577 0,0.22 0.056,0.405 0.17,0.553 0.119,0.149 0.262,0.225 0.429,0.225 0.185,0 0.343,-0.082 0.472,-0.243 0.132,-0.161 0.198,-0.352 0.198,-0.577"
           style="fill:#ffffff;fill-opacity:1;fill-rule:nonzero;stroke:none"
           id="path98" />
        <path
           d="m 401.445,112.281 -0.342,-2.828 h 0.599 c 0.441,0 0.77,0.041 0.986,0.125 0.232,0.084 0.426,0.227 0.582,0.428 0.212,0.281 0.319,0.612 0.319,0.992 0,0.444 -0.128,0.77 -0.385,0.975 -0.257,0.205 -0.661,0.308 -1.211,0.308 z m 1.196,-3.847 2.212,-3.713 h -1.38 l -2.087,3.62 h -0.473 l -0.445,-3.62 h -1.305 l 1.083,8.807 h 1.727 c 0.563,0 1.009,-0.051 1.34,-0.154 0.327,-0.096 0.612,-0.27 0.855,-0.524 0.46,-0.472 0.69,-1.08 0.69,-1.827 0,-1.365 -0.739,-2.228 -2.217,-2.589"
           style="fill:#ffffff;fill-opacity:1;fill-rule:nonzero;stroke:none"
           id="path100" />
        <path
           d="m 413.674,109.296 c 0,0.905 -0.288,1.631 -0.865,2.174 -0.578,0.541 -1.353,0.811 -2.327,0.811 -0.977,0 -1.799,-0.304 -2.464,-0.913 -0.659,-0.608 -0.988,-1.369 -0.988,-2.281 0,-0.901 0.306,-1.649 0.918,-2.238 0.612,-0.587 1.385,-0.881 2.321,-0.881 0.973,0 1.783,0.316 2.43,0.95 0.65,0.626 0.975,1.419 0.975,2.378 m 1.27,-0.01 c 0,-0.966 -0.267,-1.842 -0.798,-2.628 -0.422,-0.619 -0.973,-1.096 -1.653,-1.432 -0.68,-0.337 -1.433,-0.505 -2.258,-0.505 -1.318,0 -2.393,0.404 -3.225,1.213 -0.833,0.811 -1.249,1.861 -1.249,3.149 0,1.284 0.441,2.345 1.322,3.183 0.886,0.841 2.003,1.262 3.352,1.262 1.349,0 2.438,-0.39 3.266,-1.169 0.828,-0.776 1.243,-1.799 1.243,-3.073"
           style="fill:#ffffff;fill-opacity:1;fill-rule:nonzero;stroke:none"
           id="path102" />
        <path
           d="m 417.814,112.281 -0.319,-2.604 h 0.371 c 1.117,0 1.676,0.514 1.676,1.544 0,0.706 -0.426,1.06 -1.277,1.06 z m -0.612,-3.553 -0.353,-2.76 h 0.937 c 0.697,0 1.176,0.084 1.436,0.251 0.397,0.253 0.596,0.672 0.596,1.26 0,0.221 -0.034,0.411 -0.101,0.568 -0.067,0.157 -0.171,0.287 -0.313,0.388 -0.142,0.101 -0.326,0.175 -0.55,0.222 -0.226,0.047 -0.497,0.071 -0.812,0.071 z m -0.539,4.8 h 1.63 c 0.514,0 0.93,-0.055 1.249,-0.166 0.301,-0.11 0.557,-0.296 0.767,-0.559 0.335,-0.414 0.502,-0.913 0.502,-1.5 0,-0.89 -0.428,-1.569 -1.283,-2.036 1.039,-0.259 1.559,-0.91 1.559,-1.951 0,-0.43 -0.092,-0.835 -0.276,-1.214 -0.173,-0.377 -0.418,-0.682 -0.735,-0.914 -0.253,-0.186 -0.53,-0.31 -0.831,-0.371 -0.159,-0.03 -0.349,-0.053 -0.572,-0.071 -0.222,-0.017 -0.486,-0.025 -0.792,-0.025 h -2.301 z"
           style="fill:#ffffff;fill-opacity:1;fill-rule:nonzero;stroke:none"
           id="path104" />
        <path
           d="m 430.339,114.09 -5.445,-11.918 -0.877,0.403 5.439,11.903 z"
           style="fill:#ffffff;fill-opacity:1;fill-rule:nonzero;stroke:none"
           id="path106" />
        <path
           d="m 435.761,107.922 h 2.485 l -0.947,3.129 z m -0.566,-1.159 -1.072,-2.042 h -1.419 l 4.869,9.425 3.039,-9.425 h -1.362 l -0.639,2.042 z"
           style="fill:#ffffff;fill-opacity:1;fill-rule:nonzero;stroke:none"
           id="path108" />
        <path
           d="m 443.581,113.528 -0.929,-7.56 h 2.492 l -0.149,-1.247 h -3.797 l 1.083,8.807 z"
           style="fill:#ffffff;fill-opacity:1;fill-rule:nonzero;stroke:none"
           id="path110" />
        <path
           d="m 448.133,113.528 -1.083,-8.807 h -1.269 l 1.053,8.807 z"
           style="fill:#ffffff;fill-opacity:1;fill-rule:nonzero;stroke:none"
           id="path112" />
        <path
           d="m 454.153,113.528 -0.147,-1.247 h -3.045 l -0.279,-2.24 h 3.044 l -0.136,-1.159 h -3.051 l -0.513,-4.161 h -1.269 l 1.058,8.807 z"
           style="fill:#ffffff;fill-opacity:1;fill-rule:nonzero;stroke:none"
           id="path114" />
        <path
           d="m 459.501,113.528 -0.148,-1.247 h -3.234 l -0.278,-2.252 h 3.232 l -0.136,-1.158 h -3.233 l -0.365,-2.903 h 3.233 l -0.154,-1.247 h -4.349 l 0.947,8.807 z"
           style="fill:#ffffff;fill-opacity:1;fill-rule:nonzero;stroke:none"
           id="path116" />
      </g>
    </g>
  </g>
</svg>
