<?xml version="1.0" standalone="no"?>
<!DOCTYPE svg PUBLIC "-//W3C//DTD SVG 20010904//EN"
 "http://www.w3.org/TR/2001/REC-SVG-20010904/DTD/svg10.dtd">
<svg version="1.0" xmlns="http://www.w3.org/2000/svg"
 width="300.000000pt" height="300.000000pt" viewBox="0 0 300.000000 300.000000"
 preserveAspectRatio="xMidYMid meet">

<g transform="translate(0.000000,300.000000) scale(0.100000,-0.100000)"
fill="#000000" stroke="none">
<path d="M95 2887 c-3 -6 -4 -165 -3 -352 l3 -340 165 0 165 0 3 353 2 352
-165 0 c-124 0 -167 -3 -170 -13z"/>
<path d="M460 2640 l0 -260 30 0 c68 0 162 67 203 144 30 58 30 174 0 232 -41
77 -135 144 -203 144 l-30 0 0 -260z"/>
<path d="M1512 2543 l3 -358 140 -3 c77 -1 150 0 163 3 l22 5 0 355 0 355
-165 0 -165 0 2 -357z"/>
<path d="M1872 2543 l3 -358 113 -3 c85 -2 112 0 112 10 0 7 -41 54 -92 105
l-91 92 54 24 c210 93 212 373 4 468 -22 10 -55 19 -73 19 l-32 0 2 -357z"/>
<path d="M2192 2543 l3 -358 165 0 165 0 3 358 2 357 -170 0 -170 0 2 -357z"/>
<path d="M2550 2546 c0 -313 2 -355 16 -360 25 -10 312 -7 318 3 3 5 -64 85
-149 177 -86 93 -154 174 -153 181 2 7 72 87 156 177 83 91 152 168 152 171 0
3 -76 5 -170 5 l-170 0 0 -354z"/>
<path d="M752 2539 l3 -354 340 -3 c187 -1 346 0 354 3 17 7 -24 49 -422 437
l-277 271 2 -354z"/>
<path d="M1920 1881 c0 -77 1 -81 38 -125 31 -38 43 -45 75 -45 l37 -1 0 125
0 125 -75 0 -75 0 0 -79z"/>
<path d="M1100 1445 l0 -355 170 0 170 0 0 355 0 355 -170 0 -170 0 0 -355z"/>
<path d="M1645 1788 c-3 -7 -6 -42 -7 -78 l-3 -65 -77 74 -78 74 0 -178 0
-178 42 -46 c85 -94 290 -301 299 -301 5 0 9 152 9 355 l0 355 -90 0 c-64 0
-92 -4 -95 -12z"/>
<path d="M110 450 l0 -350 160 0 160 0 0 350 0 350 -160 0 -160 0 0 -350z"/>
<path d="M460 451 l0 -351 115 0 c63 0 115 3 115 8 0 4 -40 48 -90 97 -49 49
-90 92 -90 96 0 3 17 11 38 17 90 27 162 130 162 231 0 123 -89 228 -209 247
l-41 7 0 -352z"/>
<path d="M1010 791 c-67 -21 -170 -97 -170 -126 0 -7 33 -42 74 -78 64 -58 74
-64 79 -47 3 11 9 20 14 20 11 0 135 -141 129 -147 -2 -3 -22 7 -43 21 l-38
26 -3 -45 c-2 -25 -5 -45 -7 -45 -2 0 -61 40 -131 90 -70 49 -131 90 -135 90
-13 0 -22 -69 -16 -130 11 -121 93 -236 205 -288 47 -22 71 -27 142 -27 77 0
92 3 152 33 75 37 138 100 172 172 32 68 30 226 -3 293 -34 68 -101 133 -174
167 -53 26 -73 30 -142 29 -44 0 -91 -4 -105 -8z"/>
<path d="M2255 788 c-3 -7 -4 -164 -3 -348 l3 -335 165 0 165 0 0 345 0 345
-163 3 c-125 2 -164 0 -167 -10z"/>
<path d="M2600 455 c0 -273 3 -347 13 -351 7 -2 85 -3 172 -2 l160 3 -159 173
-159 173 40 42 c135 144 273 296 273 301 0 3 -76 6 -170 6 l-170 0 0 -345z"/>
<path d="M1723 769 c-70 -27 -146 -97 -180 -167 -25 -51 -28 -68 -28 -157 0
-86 3 -107 25 -150 49 -100 161 -184 252 -188 l43 -2 0 340 0 340 -30 2 c-16
1 -53 -7 -82 -18z"/>
<path d="M1868 784 c-12 -11 -10 -328 1 -339 6 -6 78 -9 172 -7 l161 3 -4 53
c-8 102 -77 201 -176 254 -60 32 -140 51 -154 36z"/>
<path d="M1864 387 c-2 -7 -3 -74 -2 -148 l3 -134 49 3 c126 6 257 125 281
255 l7 37 -166 0 c-128 0 -168 -3 -172 -13z"/>
</g>
</svg>
