<?xml version="1.0" encoding="UTF-8" standalone="no"?>
<!-- Created with Inkscape (http://www.inkscape.org/) -->

<svg
   version="1.1"
   id="svg2"
   width="375.69144"
   height="226.35703"
   viewBox="0 0 375.69144 226.35702"
   sodipodi:docname="LOGORCPcomplet.ai"
   xmlns:inkscape="http://www.inkscape.org/namespaces/inkscape"
   xmlns:sodipodi="http://sodipodi.sourceforge.net/DTD/sodipodi-0.dtd"
   xmlns="http://www.w3.org/2000/svg"
   xmlns:svg="http://www.w3.org/2000/svg">
  <defs
     id="defs6" />
  <sodipodi:namedview
     id="namedview4"
     pagecolor="#505050"
     bordercolor="#ffffff"
     borderopacity="1"
     inkscape:showpageshadow="0"
     inkscape:pageopacity="0"
     inkscape:pagecheckerboard="1"
     inkscape:deskcolor="#505050"
     showgrid="false" />
  <g
     id="g10"
     inkscape:groupmode="layer"
     inkscape:label="Page 1"
     transform="matrix(1.3333333,0,0,-1.3333333,-21.085939,436.30492)">
    <path
       d="M 297.58301,157.46094 H 15.81445 v 43.61328 h 281.76856 z"
       style="fill:#eb1c24;fill-opacity:1;fill-rule:nonzero;stroke:none"
       id="path12" />
    <path
       d="m 15.90479,261.5918 h 19.41699 c 4.21142,0 7.90088,-0.52686 12.03808,-3.76367 3.23682,-2.48292 5.79395,-6.99805 5.79395,-12.792 0,-7.60156 -5.79395,-16.10595 -16.77881,-16.10595 H 24.0332 v -20.92041 h -8.12841 v 53.58203 m 8.12841,-24.9834 h 12.04053 c 6.01904,0 8.95166,4.43896 8.95166,8.65283 0,3.61279 -1.4292,5.7959 -3.45947,7.14893 -1.80518,1.20654 -3.46192,1.50586 -5.79151,1.50586 H 24.0332 Z"
       style="fill:#181210;fill-opacity:1;fill-rule:nonzero;stroke:none"
       id="path14" />
    <path
       d="M 82.28809,219.97852 H 61.96875 L 57.8291,208.00977 h -8.57568 l 19.48877,53.58203 h 6.77295 l 19.49072,-53.58203 h -8.57813 l -4.13964,11.96875 m -2.33399,7.22314 -7.75,23.40332 h -0.15088 l -7.75,-23.40332 z"
       style="fill:#181210;fill-opacity:1;fill-rule:nonzero;stroke:none"
       id="path16" />
    <path
       d="m 101.20166,261.5918 h 20.92041 c 4.51758,0 8.05371,-1.05371 10.9126,-3.53614 3.00928,-2.55957 5.34375,-6.62255 5.34375,-11.44189 0,-6.92139 -3.91699,-12.56689 -10.38623,-14.82227 l 12.4165,-23.78173 h -9.63183 l -11.06348,22.87646 h -10.38379 v -22.87646 h -8.12793 v 53.58203 m 8.12793,-23.4795 h 12.26562 c 6.09571,0 9.10743,3.98633 9.10743,8.50147 0,2.78662 -1.05567,4.89355 -2.71045,6.09814 -1.50342,1.12989 -3.16016,1.65674 -5.94434,1.65674 h -12.71826 z"
       style="fill:#181210;fill-opacity:1;fill-rule:nonzero;stroke:none"
       id="path18" />
    <path
       d="m 151.09863,261.5918 h 8.12598 v -53.58203 h -8.12598 z"
       style="fill:#181210;fill-opacity:1;fill-rule:nonzero;stroke:none"
       id="path20" />
    <path
       d="m 172.4248,221.03174 c 4.06543,-3.23682 9.48145,-5.34619 15.20313,-5.34619 6.62207,0 10.61133,3.0122 10.61133,7.45068 0,3.76367 -2.18164,6.62256 -6.99805,7.22559 -2.40918,0.30175 -4.29101,0.60351 -7.07519,0.97949 -9.25586,1.27588 -14.22168,7.2998 -14.22168,15.0498 0,9.1792 6.3955,15.65088 17.45605,15.65088 6.625,0 12.49316,-2.33203 17.38672,-5.5664 l -4.51563,-6.69922 c -3.91406,2.48291 -8.50585,4.13965 -13.24414,4.13965 -4.96582,0 -8.95703,-2.55957 -8.95703,-7.67579 0,-3.01171 2.18164,-6.01904 7.59961,-6.84716 1.43164,-0.22754 3.46387,-0.5293 6.02344,-0.83106 10.00781,-1.20166 14.67187,-8.12549 14.67187,-15.42578 0,-9.85693 -7.2998,-15.57666 -18.81347,-15.57666 -7.90137,0 -14.8252,2.40918 -20.46778,7.37451 z"
       style="fill:#181210;fill-opacity:1;fill-rule:nonzero;stroke:none"
       id="path22" />
    <path
       d="m 40.56787,280.46094 c 0,-6.59229 -5.32031,-12.36035 -12.14014,-12.36035 -5.84228,0 -12.58056,2.84668 -12.58056,12.58545 v 29.36669 c 0,6.96778 5.0166,12.28614 12.43457,12.28614 7.04248,0 12.28613,-5.31836 12.28613,-12.73438 v -2.99756 h -7.64062 v 2.54541 c 0,2.99805 -1.79834,5.54297 -4.72217,5.54297 -3.81934,0 -4.71729,-2.61718 -4.71729,-6.21386 v -27.271 c 0,-3.07227 1.19532,-5.46924 4.64307,-5.46924 2.09766,0 4.79639,1.19971 4.79639,5.39502 v 2.61963 h 7.64062 z"
       style="fill:#eb1c24;fill-opacity:1;fill-rule:nonzero;stroke:none"
       id="path24" />
    <path
       d="m 55.25146,321.88867 h 6.36475 l 11.9126,-53.33789 H 65.8877 l -2.2461,11.45996 H 53.22559 l -2.2461,-11.45996 h -7.64306 l 11.91503,53.33789 m 3.21827,-15.35596 h -0.15088 l -3.74512,-19.33105 h 7.64111 z"
       style="fill:#eb1c24;fill-opacity:1;fill-rule:nonzero;stroke:none"
       id="path26" />
    <path
       d="m 77.27393,321.88867 h 7.34179 l 9.81494,-28.24316 h 0.14844 l 9.74072,28.24316 h 7.41358 v -53.33789 h -7.64063 v 32.43848 h -0.14843 l -7.5669,-22.92774 h -3.81933 l -7.49268,22.92774 h -0.15039 v -32.43848 h -7.64111 z"
       style="fill:#eb1c24;fill-opacity:1;fill-rule:nonzero;stroke:none"
       id="path28" />
    <path
       d="m 118.92676,321.88867 h 11.4624 c 4.19531,0 7.26758,-0.97217 9.88965,-3.74756 2.62207,-2.76806 3.4458,-6.1416 3.4458,-12.50634 0,-4.64551 -0.37354,-7.792 -2.17188,-10.71582 -2.09765,-3.44532 -5.46923,-5.54297 -11.08935,-5.54297 h -3.89551 v -20.8252 h -7.64111 v 53.33789 m 7.64111,-25.31982 h 3.67041 c 6.22119,0 6.29541,3.6709 6.29541,8.98926 0,5.02099 0,9.1372 -5.99365,9.1372 h -3.97217 z"
       style="fill:#eb1c24;fill-opacity:1;fill-rule:nonzero;stroke:none"
       id="path30" />
    <path
       d="m 174.1377,280.53516 c 0,-6.96778 -5.54395,-12.43457 -12.3584,-12.43457 -6.81739,0 -12.36084,5.46679 -12.36084,12.43457 v 41.35351 h 7.64111 v -40.604 c 0,-3.74512 2.02148,-5.54346 4.71973,-5.54346 2.69629,0 4.71972,1.79834 4.71972,5.54346 v 40.604 h 7.63868 z"
       style="fill:#eb1c24;fill-opacity:1;fill-rule:nonzero;stroke:none"
       id="path32" />
    <path
       d="m 206.05371,306.53271 h -7.64062 v 1.72168 c 0,3.52198 -1.49903,6.44092 -5.39746,6.44092 -4.19532,0 -5.167,-3.3667 -5.167,-6.89111 0,-4.11865 0.37305,-5.54346 4.34571,-7.11426 l 5.84277,-2.32519 c 6.74023,-2.54541 8.0166,-6.8169 8.0166,-14.60889 0,-8.98926 -3.29492,-15.65527 -13.18359,-15.65527 -7.41895,0 -13.03809,5.46679 -13.03809,12.65966 v 2.84717 h 7.64063 v -2.39697 c 0,-2.77051 1.50097,-5.46924 5.39746,-5.46924 5.16699,0 5.54297,3.06983 5.54297,7.94043 0,5.69434 -0.67481,6.59473 -4.41993,8.09082 l -5.47168,2.24854 c -6.59179,2.69629 -8.31445,7.04248 -8.31445,13.71142 0,8.08838 4.34668,14.60645 13.11328,14.60645 7.64063,0 12.7334,-6.14453 12.7334,-12.06153 z"
       style="fill:#eb1c24;fill-opacity:1;fill-rule:nonzero;stroke:none"
       id="path34" />
    <path
       d="m 31.21484,177.09375 -0.09277,0.0928 c -0.32031,-0.22949 -0.97021,-0.41308 -1.98633,-0.41308 -1.65674,0 -3.1792,0.9209 -3.95605,2.11328 -0.83301,1.29297 -1.0166,2.44336 -1.0166,7.65039 0,4.2832 0.18359,5.19824 1.06054,6.67773 1.19239,2.02344 3.35987,3.17481 5.93994,3.17481 2.5293,0 4.65235,-1.19531 5.89405,-3.17481 0.9209,-1.47949 1.10888,-2.39453 1.10888,-6.67773 0,-4.05371 -0.23877,-4.97656 -0.87695,-6.72461 L 31.12207,163.3223 h -5.25586 l 5.34863,13.77148 m -2.35058,6.16699 c 0,-1.42187 1.10205,-2.34082 2.29931,-2.34082 1.19727,0 2.3042,0.91895 2.3042,2.34082 v 6.08399 c 0,1.42675 -1.10693,2.3457 -2.3042,2.3457 -1.19726,0 -2.29931,-0.91895 -2.29931,-2.3457 z"
       style="fill:#ffffff;fill-opacity:1;fill-rule:nonzero;stroke:none"
       id="path36" />
    <path
       d="m 46.87012,182.2959 c 2.80517,0 3.729,0.41992 3.729,2.86035 v 4.23535 c 0,1.33594 -0.87744,2.29883 -2.3042,2.29883 -1.65234,0 -2.30176,-1.33398 -2.30176,-2.29883 v -2.67285 h -4.69873 v 2.7168 c 0,3.86523 3.2251,6.9541 7.09327,6.9541 2.52929,0 4.28125,-1.28516 5.11181,-2.30371 1.24365,-1.46485 1.79346,-2.76367 1.79346,-6.95508 0,-4.51074 -0.2251,-5.24609 -2.89795,-6.86133 2.89795,-1.79297 2.89795,-2.85156 2.89795,-7.50098 0,-4.33203 -0.27344,-5.29785 -1.24121,-6.72949 -1.15332,-1.69629 -2.94434,-2.98828 -5.80322,-2.98828 -2.99317,0 -6.95411,1.84473 -6.95411,6.9961 v 2.6748 h 4.69873 v -2.44336 c 0,-1.47363 0.87696,-2.5332 2.30176,-2.5332 1.42676,0 2.3042,1.01367 2.3042,2.62207 v 4.69629 c 0,2.53808 -0.69629,3.09082 -3.729,3.09082 z"
       style="fill:#ffffff;fill-opacity:1;fill-rule:nonzero;stroke:none"
       id="path38" />
    <path
       d="m 58.79688,168.02344 h 4.69384 v -4.70117 h -4.69384 z"
       style="fill:#ffffff;fill-opacity:1;fill-rule:nonzero;stroke:none"
       id="path40" />
    <path
       d="m 74.03467,177.09375 -0.09033,0.0928 c -0.32032,-0.22949 -0.96534,-0.41308 -1.97461,-0.41308 -1.66407,0 -3.1792,0.9209 -3.96338,2.11328 -0.82813,1.29297 -1.00928,2.44336 -1.00928,7.65039 0,4.2832 0.18115,5.19824 1.05322,6.67773 1.19727,2.02344 3.36475,3.17481 5.93555,3.17481 2.53857,0 4.66162,-1.19531 5.90088,-3.17481 0.92578,-1.47949 1.10693,-2.39453 1.10693,-6.67773 0,-4.05371 -0.23242,-4.97656 -0.88183,-6.72461 L 73.94434,163.3223 h -5.2417 l 5.33203,13.77148 m -2.34375,6.16699 c 0,-1.42187 1.10449,-2.34082 2.29492,-2.34082 1.20459,0 2.30908,0.91895 2.30908,2.34082 v 6.08399 c 0,1.42675 -1.10449,2.3457 -2.30908,2.3457 -1.19043,0 -2.29492,-0.91895 -2.29492,-2.3457 z"
       style="fill:#ffffff;fill-opacity:1;fill-rule:nonzero;stroke:none"
       id="path42" />
    <path
       d="m 92.03125,196.1084 h 13.99658 v -4.41797 h -9.30224 v -9.94434 h 8.10742 v -4.41796 h -8.10742 v -14.00586 h -4.69434 z"
       style="fill:#ffffff;fill-opacity:1;fill-rule:nonzero;stroke:none"
       id="path44" />
    <path
       d="m 109.06982,196.1084 h 4.51319 l 6.02832,-17.36035 h 0.0952 l 5.98877,17.36035 h 4.55713 v -32.78613 h -4.70117 v 19.93847 h -0.0903 l -4.64551,-14.08691 h -2.35254 l -4.60156,14.08691 h -0.0952 v -19.93847 h -4.69629 v 32.78613 z"
       style="fill:#ffffff;fill-opacity:1;fill-rule:nonzero;stroke:none"
       id="path46" />
    <path
       d="m 141.50391,187.30078 -3.66162,-2.68945 v 3.87305 l 3.66162,2.6914 h 3.65918 v -25.54492 h -3.65918 z"
       style="fill:#181210;fill-opacity:1;fill-rule:nonzero;stroke:none"
       id="path48" />
    <path
       d="m 157.75293,187.73047 h -4.01367 v -2.94238 h -3.22754 v 6.38769 h 10.90527 v -3.66113 l -6.21094,-21.88379 h -3.86816 z"
       style="fill:#181210;fill-opacity:1;fill-rule:nonzero;stroke:none"
       id="path50" />
    <path
       d="m 164.35742,191.17578 h 3.6543 v -10.94043 h 4.52734 v 10.94043 h 3.65918 v -25.54492 h -3.65918 v 11.37402 h -4.52734 v -11.37402 h -3.6543 z"
       style="fill:#181210;fill-opacity:1;fill-rule:nonzero;stroke:none"
       id="path52" />
    <path
       d="m 183.47949,180.41113 c 2.18555,0 2.90918,0.33008 2.90918,2.23047 v 3.29688 c 0,1.04394 -0.67969,1.79199 -1.79297,1.79199 -1.29492,0 -1.79394,-1.04004 -1.79394,-1.79199 v -2.08106 h -3.66406 v 2.11328 c 0,3.01465 2.51269,5.42285 5.52734,5.42285 1.96777,0 3.33691,-1.00488 3.98144,-1.79296 0.96778,-1.15137 1.39258,-2.15332 1.39258,-5.41797 0,-3.52051 -0.17187,-4.08692 -2.24902,-5.34668 2.24902,-1.39942 2.24902,-2.22461 2.24902,-5.85156 0,-3.36915 -0.20898,-4.1211 -0.96777,-5.23731 -0.89063,-1.32519 -2.29004,-2.32715 -4.51563,-2.32715 -2.33203,0 -5.41796,1.43653 -5.41796,5.4502 v 2.08398 h 3.66406 v -1.90527 c 0,-1.1416 0.67773,-1.97266 1.79394,-1.97266 1.11328,0 1.79297,0.79199 1.79297,2.04688 v 3.65918 c 0,1.97265 -0.54004,2.40429 -2.90918,2.40429 z"
       style="fill:#181210;fill-opacity:1;fill-rule:nonzero;stroke:none"
       id="path54" />
    <path
       d="m 192.4873,185.9043 c 0,3.40625 2.54004,5.48925 5.4502,5.48925 2.89551,0 5.4502,-2.083 5.4502,-5.48925 v -15.00196 c 0,-3.40332 -2.55469,-5.48242 -5.4502,-5.48242 -2.91016,0 -5.4502,2.0791 -5.4502,5.48242 v 15.00196 m 3.6543,-15.00196 c 0,-1.03418 0.75391,-1.82617 1.7959,-1.82617 1.03711,0 1.7959,0.79199 1.7959,1.82617 v 15.00196 c 0,1.04394 -0.75879,1.82617 -1.7959,1.82617 -1.04199,0 -1.7959,-0.78223 -1.7959,-1.82617 z"
       style="fill:#181210;fill-opacity:1;fill-rule:nonzero;stroke:none"
       id="path56" />
    <path
       d="m 222.7002,185.9043 c 0,3.40625 2.5498,5.48925 5.45507,5.48925 2.90723,0 5.45313,-2.083 5.45313,-5.48925 v -15.00196 c 0,-3.40332 -2.5459,-5.48242 -5.45313,-5.48242 -2.90527,0 -5.45507,2.0791 -5.45507,5.48242 v 15.00196 m 3.65722,-15.00196 c 0,-1.03418 0.75879,-1.82617 1.79785,-1.82617 1.04004,0 1.792,0.79199 1.792,1.82617 v 15.00196 c 0,1.04394 -0.75196,1.82617 -1.792,1.82617 -1.03906,0 -1.79785,-0.78223 -1.79785,-1.82617 z"
       style="fill:#181210;fill-opacity:1;fill-rule:nonzero;stroke:none"
       id="path58" />
    <path
       d="m 246.9502,187.73047 h -7.24415 v -6.8877 c 0.68262,0.64746 1.75684,1.1836 3.04688,1.1836 2.47559,0 4.19727,-1.5752 4.19727,-4.51563 v -6.6084 c 0,-3.40332 -2.54493,-5.48242 -5.45313,-5.48242 -2.90234,0 -5.45215,2.0791 -5.45215,5.48242 v 1.08204 h 3.66113 v -0.93555 c 0,-1.25293 0.78907,-1.97266 1.86329,-1.97266 1.07226,0 1.72656,0.71973 1.72656,1.90039 v 5.98926 c 0,1.00977 -0.72168,1.83106 -1.72656,1.83106 -1.25098,0 -1.64454,-0.96583 -1.86329,-1.39747 h -3.22949 v 13.77637 h 10.47364 z"
       style="fill:#181210;fill-opacity:1;fill-rule:nonzero;stroke:none"
       id="path60" />
    <path
       d="m 249.89453,191.17578 h 3.65235 v -10.94043 h 4.52734 v 10.94043 h 3.65918 v -25.54492 h -3.65918 v 11.37402 h -4.52734 v -11.37402 h -3.65235 z"
       style="fill:#181210;fill-opacity:1;fill-rule:nonzero;stroke:none"
       id="path62" />
    <path
       d="m 269.01953,180.41113 c 2.18067,0 2.90235,0.33008 2.90235,2.23047 v 3.29688 c 0,1.04394 -0.68458,1.79199 -1.79102,1.79199 -1.29492,0 -1.7959,-1.04004 -1.7959,-1.79199 v -2.08106 h -3.66211 v 2.11328 c 0,3.01465 2.51367,5.42285 5.52735,5.42285 1.9746,0 3.33886,-1.00488 3.97949,-1.79296 0.96777,-1.15137 1.39941,-2.15332 1.39941,-5.41797 0,-3.52051 -0.17676,-4.08692 -2.25586,-5.34668 2.25586,-1.39942 2.25586,-2.22461 2.25586,-5.85156 0,-3.36915 -0.21094,-4.1211 -0.96972,-5.23731 -0.89356,-1.32519 -2.29004,-2.32715 -4.52247,-2.32715 -2.33203,0 -5.41406,1.43653 -5.41406,5.4502 v 2.08398 h 3.66211 v -1.90527 c 0,-1.1416 0.68457,-1.97266 1.7959,-1.97266 1.10644,0 1.79102,0.79199 1.79102,2.04688 v 3.65918 c 0,1.97265 -0.54004,2.40429 -2.90235,2.40429 z"
       style="fill:#181210;fill-opacity:1;fill-rule:nonzero;stroke:none"
       id="path64" />
    <path
       d="m 278.02246,185.9043 c 0,3.40625 2.54297,5.48925 5.45313,5.48925 2.90234,0 5.45019,-2.083 5.45019,-5.48925 v -15.00196 c 0,-3.40332 -2.54785,-5.48242 -5.45019,-5.48242 -2.91016,0 -5.45313,2.0791 -5.45313,5.48242 v 15.00196 m 3.65723,-15.00196 c 0,-1.03418 0.75097,-1.82617 1.7959,-1.82617 1.03906,0 1.79101,0.79199 1.79101,1.82617 v 15.00196 c 0,1.04394 -0.75195,1.82617 -1.79101,1.82617 -1.04493,0 -1.7959,-0.78223 -1.7959,-1.82617 z"
       style="fill:#181210;fill-opacity:1;fill-rule:nonzero;stroke:none"
       id="path66" />
    <path
       d="m 215.22852,178.33984 -5.76856,2.41016 c -0.48242,0.20703 -0.62109,0.52051 -0.62109,0.88184 0,0.72851 0.39843,1.09277 0.83008,1.09277 0.15332,0 0.36425,-0.0156 0.86523,-0.25977 l 6.84082,-3.13183 c 0.3623,-0.16016 0.64258,-0.45313 0.64258,-0.99317 0,-0.53125 -0.28028,-0.83105 -0.64258,-0.98632 l -6.84082,-3.14649 c -0.50098,-0.22949 -0.71191,-0.24609 -0.86523,-0.24609 -0.43165,0 -0.83008,0.3623 -0.83008,1.09277 0,0.36231 0.13867,0.67578 0.62109,0.87988 z"
       style="fill:#ffffff;fill-opacity:1;fill-rule:nonzero;stroke:none"
       id="path68" />
    <path
       d="m 288.02344,291.6626 h -14.11231 l -33.35547,29.28076 c 0.80176,1.09766 0.65918,2.64795 -0.38281,3.56689 -9.7e-4,4.9e-4 -2.34765,2.05957 -2.34765,2.06006 -1.10547,0.9668 -2.79102,0.85596 -3.75879,-0.24756 0,4.9e-4 -2.06055,-2.34668 -2.06055,-2.34668 -0.46875,-0.53369 -0.70215,-1.21923 -0.65527,-1.92919 0.0459,-0.70997 0.36621,-1.35938 0.90136,-1.82911 0,4.9e-4 2.34571,-2.05908 2.34571,-2.05908 0.5332,-0.46924 1.21777,-0.70312 1.92773,-0.65723 0.62891,0.04 1.20313,0.30616 1.6543,0.73633 L 268.4541,291.6626 h -46.27148 c -4.90918,0 -8.89356,-3.98389 -8.89356,-8.89746 v -65.83789 c 0,-4.91602 3.98438,-8.89893 8.89356,-8.89893 h 65.84082 c 4.91406,0 8.89844,3.98291 8.89844,8.89893 v 65.83789 c 0,4.91357 -3.98438,8.89746 -8.89844,8.89746 z"
       style="fill:#181210;fill-opacity:1;fill-rule:nonzero;stroke:none"
       id="path70" />
    <path
       d="m 223.96484,249.84619 c 0,17.19824 13.94336,31.13916 31.13965,31.13916 17.19824,0 31.13867,-13.94092 31.13867,-31.13916 0,-17.19971 -13.94043,-31.13916 -31.13867,-31.13916 -17.19629,0 -31.13965,13.93945 -31.13965,31.13916 z"
       style="fill:#ffffff;fill-opacity:1;fill-rule:nonzero;stroke:none"
       id="path72" />
    <path
       d="m 236.42285,249.84619 c 0,10.31836 8.36231,18.68604 18.68164,18.68604 10.31836,0 18.6836,-8.36768 18.6836,-18.68604 0,-10.31982 -8.36524,-18.68017 -18.6836,-18.68017 -10.31933,0 -18.68164,8.36035 -18.68164,18.68017 z"
       style="fill:#181210;fill-opacity:1;fill-rule:nonzero;stroke:none"
       id="path74" />
    <path
       d="m 246.20508,249.84619 c 0,4.91455 3.98437,8.89746 8.89941,8.89746 4.91406,0 8.89844,-3.98291 8.89844,-8.89746 0,-4.91211 -3.98438,-8.89648 -8.89844,-8.89648 -4.91504,0 -8.89941,3.98437 -8.89941,8.89648 z"
       style="fill:#eb1c24;fill-opacity:1;fill-rule:nonzero;stroke:none"
       id="path76" />
  </g>
</svg>
