<?xml version="1.0" encoding="utf-8"?>
<!-- Generator: Adobe Illustrator 26.1.0, SVG Export Plug-In . SVG Version: 6.00 Build 0)  -->
<svg version="1.1" xmlns="http://www.w3.org/2000/svg" xmlns:xlink="http://www.w3.org/1999/xlink" x="0px" y="0px"
	 viewBox="0 0 50 50" style="enable-background:new 0 0 50 50;" xml:space="preserve">
<style type="text/css">
	.st0{fill:#FFFFFF;}
</style>
<g id="Calque_1">
</g>
<g id="Calque_3">
	<g>
		<g>
			<rect width="50" height="50"/>
		</g>
		<path class="st0" d="M50,0.7V0h-0.4L8.9,35.8L8.5,36L39.3,0h-1.1L7,36.5l-0.7,0.2L28.7,0h-1L5,37.2l-0.8,0.3L18.9,0h-1L3.1,37.9
			l-0.9,0.3L9.7,0H8.7L1.1,38.6L0,39v0.8l0.9-0.3l-0.1,0.4L0,40.2V41l0.7-0.3l-0.1,0.4L0,41.4v0.9L0.4,42l-0.1,0.3L0,42.6v0.9
			l0.1-0.1l0,0.2L0,43.7v5.2l0.3-1.4l0.9-2.3l1.3-2.1l1.7-2l2.1-1.9l2.5-1.7l3-1.6l3.4-1.5L50,22v-0.8l-25.6,9.1L50,19.1v-0.8
			L19.3,31.7L50,15v-0.9L14.9,33.3L50,9.3V8.3L11.1,35L50,0.7z"/>
	</g>
	<polygon points="1.9,39.1 1.9,39.4 2.6,39.1 2.7,38.8 	"/>
	<polygon points="3.4,39.5 3.4,39.6 3.7,39.4 3.7,39.4 	"/>
	<polygon points="3.8,38.4 3.8,38.6 4.3,38.3 4.4,38.2 	"/>
	<polygon points="1.7,40.3 1.7,40.5 2.1,40.2 2.2,40 	"/>
	<polygon points="1.5,41.5 1.4,41.6 1.7,41.4 1.7,41.3 	"/>
</g>
</svg>
