<?xml version="1.0" encoding="UTF-8" standalone="no"?>
<!-- Created with Inkscape (http://www.inkscape.org/) -->

<svg
   version="1.1"
   id="svg2"
   width="47.227539"
   height="35.275391"
   viewBox="0 0 47.227539 35.27539"
   sodipodi:docname="PNR_2010.pdf"
   xmlns:inkscape="http://www.inkscape.org/namespaces/inkscape"
   xmlns:sodipodi="http://sodipodi.sourceforge.net/DTD/sodipodi-0.dtd"
   xmlns="http://www.w3.org/2000/svg"
   xmlns:svg="http://www.w3.org/2000/svg">
  <defs
     id="defs6">
    <clipPath
       clipPathUnits="userSpaceOnUse"
       id="clipPath2916">
      <path
         d="M 0,0 H 595.276 V 841.89 H 0 Z"
         id="path2914" />
    </clipPath>
  </defs>
  <sodipodi:namedview
     id="namedview4"
     pagecolor="#505050"
     bordercolor="#ffffff"
     borderopacity="1"
     inkscape:showpageshadow="0"
     inkscape:pageopacity="0"
     inkscape:pagecheckerboard="1"
     inkscape:deskcolor="#505050"
     showgrid="false" />
  <g
     id="g2614"
     inkscape:groupmode="layer"
     inkscape:label="Page 14"
     transform="matrix(1.3333333,0,0,-1.3333333,-233.19654,886.93839)">
    <g
       id="g2910">
      <g
         id="g2912"
         clip-path="url(#clipPath2916)">
        <g
           id="g2918"
           transform="translate(185.3895,653.759)">
          <path
             d="M 0,0 C 1.035,-0.24 2.677,0.305 3.224,-0.362 3.581,-0.799 3.596,-3.114 3.265,-3.627 2.715,-4.475 1.126,-3.842 0.04,-4.111 -0.244,-4.65 0.198,-5.726 -0.161,-6.125 c -0.208,-0.232 -0.88,-0.237 -1.088,0 -0.274,0.311 -0.121,1.518 -0.121,2.257 v 2.337 c -1.262,-0.888 -2.601,-2.047 -3.869,-3.063 v -4.029 c 1.057,-0.236 2.904,0.342 3.345,-0.485 0.309,-0.578 0.164,-2.458 -0.363,-2.659 0.563,-0.366 0.444,-0.926 0.444,-1.854 0,-0.467 -0.016,-0.838 -0.162,-1.007 -0.381,-0.446 -1.337,-0.323 -2.176,-0.323 -0.665,0 -2.065,-0.198 -2.337,0.121 -0.203,0.239 -0.08,1.774 -0.08,2.418 v 12.291 c 0,2.277 0.374,5.598 -0.605,6.851 -0.296,0.379 -0.811,0.668 -1.532,0.725 -0.478,0.038 -1.264,-0.179 -1.611,0.081 -0.141,0.105 -0.271,0.751 -0.08,1.008 0.181,0.246 0.891,0.244 1.208,0.241 3.885,-0.036 4.202,-3.021 3.949,-7.133 1.288,0.862 2.625,2.023 3.869,3.063 -0.107,2.269 0.325,4.653 -1.37,5.279 -0.602,0.222 -1.969,-0.054 -2.297,0.282 -0.154,0.157 -0.168,0.654 -0.081,0.846 0.126,0.282 0.457,0.255 0.685,0.282 C -1.868,11.717 -0.193,10.202 0,7.818 0.205,5.287 -0.153,2.576 0,0 m -4.312,0.605 c -0.249,-0.199 -0.862,-0.597 -0.927,-0.807 -0.241,-0.783 0.177,-1.664 0,-2.618 0.881,0.614 1.952,1.516 2.942,2.296 0.269,0.211 0.854,0.596 0.927,0.846 C -1.144,1.1 -1.501,2.063 -1.411,2.942 -2.235,2.279 -3.359,1.366 -4.312,0.605 M 0.04,-1.33 c -0.043,-0.4 -0.173,-1.051 0,-1.41 0.566,-0.049 1.473,-0.108 1.975,0.039 -0.025,0.446 0.051,0.992 -0.04,1.371 -0.557,0.066 -1.377,0.066 -1.935,0 m -5.319,-8.463 v -1.41 c 0.66,-0.027 1.805,-0.196 2.177,0.202 0.06,0.307 0.069,0.863 0,1.168 -0.647,0.093 -1.464,0.015 -2.177,0.04 m 0,-2.578 v -1.451 c 0.725,0.041 1.621,-0.09 2.216,0.08 -0.02,0.396 0.045,0.878 -0.039,1.209 -0.463,0.317 -1.463,0.095 -2.177,0.162"
             style="fill:#231f20;fill-opacity:1;fill-rule:nonzero;stroke:none"
             id="path2920" />
        </g>
        <g
           id="g2922"
           transform="translate(203.3623,653.759)">
          <path
             d="m 0,0 c 0.284,-0.064 0.161,-0.454 0.161,-0.645 0.01,-1.697 0.027,-3.73 -0.04,-5.4 -0.201,-0.327 -1.047,-0.327 -1.249,0 -0.094,1.706 -0.014,3.587 -0.04,5.36 C -0.892,-0.343 -0.418,-0.2 0,0"
             style="fill:#231f20;fill-opacity:1;fill-rule:nonzero;stroke:none"
             id="path2924" />
        </g>
        <g
           id="g2926"
           transform="translate(194.2949,652.5504)">
          <path
             d="m 0,0 c -0.901,-0.093 -1.972,-0.015 -2.942,-0.041 -0.09,-0.352 -0.015,-0.871 -0.04,-1.29 0.766,-0.084 1.722,0.162 2.258,-0.08 -0.015,-0.425 -0.453,-0.75 -0.686,-1.088 h -1.532 c -0.09,-0.352 -0.015,-0.871 -0.04,-1.29 0.595,-0.301 2.586,0.312 3.063,-0.161 0.064,-0.063 0.281,-0.607 0.04,-0.926 -0.234,-0.312 -1.474,-0.162 -2.095,-0.162 -0.639,0 -1.806,-0.211 -2.136,0.122 -0.236,0.238 -0.121,0.991 -0.121,1.45 v 3.103 c 0,0.7 -0.148,1.46 0.444,1.531 0.546,0.066 1.209,0 2.014,0 0.561,0 1.642,0.118 1.854,-0.161 C 0.242,0.795 0.212,0.242 0,0"
             style="fill:#231f20;fill-opacity:1;fill-rule:nonzero;stroke:none"
             id="path2928" />
        </g>
        <g
           id="g2930"
           transform="translate(198.7285,652.5095)">
          <path
             d="m 0,0 v -2.458 c 0,-0.792 0.165,-1.933 -0.081,-2.337 -0.176,-0.29 -0.927,-0.355 -1.169,-0.08 -0.287,0.325 -0.121,1.627 -0.121,2.256 0,0.881 0.033,1.641 -0.04,2.337 -0.215,0.575 -1.314,0.054 -1.732,0.363 -0.333,0.246 -0.209,1.021 0.241,1.128 0.636,0.152 1.425,0 2.418,0 0.821,0 1.969,0.136 2.297,-0.08 C 2.042,0.978 2.147,0.3 1.853,0.081 1.517,-0.171 0.725,0.102 0,0"
             style="fill:#231f20;fill-opacity:1;fill-rule:nonzero;stroke:none"
             id="path2932" />
        </g>
        <g
           id="g2934"
           transform="translate(210.173,653.5976)">
          <path
             d="m 0,0 c 0.168,-0.348 0.232,-0.823 -0.04,-1.007 -0.397,-0.269 -1.259,0.032 -1.854,-0.081 v -2.499 c 0,-0.72 0.164,-2.054 -0.12,-2.377 -0.226,-0.255 -0.828,-0.203 -1.129,0 -0.145,0.698 -0.081,1.49 -0.081,2.297 0,0.719 0.179,1.832 -0.08,2.297 -0.299,0.534 -1.23,-0.014 -1.733,0.363 -0.35,0.261 -0.151,1.029 0.242,1.128 0.651,0.164 1.578,0 2.458,0 C -1.464,0.121 -0.588,0.208 0,0"
             style="fill:#231f20;fill-opacity:1;fill-rule:nonzero;stroke:none"
             id="path2936" />
        </g>
        <g
           id="g2938"
           transform="translate(189.7823,641.3469)">
          <path
             d="m 0,0 c -0.725,0.094 -1.626,0.014 -2.418,0.041 -0.271,-0.653 0.252,-1.82 -0.121,-2.378 -0.216,-0.323 -1.016,-0.239 -1.169,0.08 -0.233,0.487 -0.041,2.244 -0.041,2.983 0,0.95 -0.139,2.434 0.202,2.82 0.191,0.217 0.505,0.241 0.887,0.282 0.923,0.1 3.42,0.282 3.828,-0.362 C 1.515,2.92 1.289,1.359 1.289,0.524 v -1.531 c 0,-0.326 0.097,-1.124 -0.121,-1.37 C 0.926,-2.653 0.251,-2.588 0.08,-2.337 -0.255,-1.841 0.165,-0.667 0,0 M -2.297,2.7 C -2.625,2.464 -2.385,1.66 -2.458,1.169 H 0 C -0.026,1.641 0.052,2.214 -0.04,2.62 -0.638,2.802 -1.567,2.651 -2.297,2.7"
             style="fill:#231f20;fill-opacity:1;fill-rule:nonzero;stroke:none"
             id="path2940" />
        </g>
        <g
           id="g2942"
           transform="translate(194.1342,638.9295)">
          <path
             d="m 0,0 c -0.275,0.612 -0.161,1.63 -0.161,2.659 0,0.907 -0.199,2.104 0.04,2.741 0.066,0.176 0.934,0.83 1.169,0.765 C 1.309,6.094 1.209,5.212 1.209,4.714 1.209,3.546 1.169,2.754 1.169,1.571 1.169,1.085 1.248,0.296 1.088,0.08 0.913,-0.157 0.246,-0.126 0,0"
             style="fill:#231f20;fill-opacity:1;fill-rule:nonzero;stroke:none"
             id="path2944" />
        </g>
        <g
           id="g2946"
           transform="translate(203.7653,644.8128)">
          <path
             d="m 0,0 c 0.068,-1.815 0.068,-3.907 0,-5.723 -0.669,-0.673 -1.249,0.133 -1.692,0.604 -0.887,0.948 -1.912,2.123 -2.7,2.943 -0.256,-1.034 0.117,-2.696 -0.202,-3.667 -0.183,-0.168 -0.719,-0.147 -1.007,-0.081 -0.309,0.329 -0.202,0.885 -0.202,1.37 v 4.715 c 0.174,0.056 0.699,-0.074 0.928,0.041 1.238,-1.207 2.332,-2.558 3.546,-3.788 0.208,1.04 -0.022,2.52 0.121,3.626 C -0.989,0.333 -0.175,0.314 0,0"
             style="fill:#231f20;fill-opacity:1;fill-rule:nonzero;stroke:none"
             id="path2948" />
        </g>
      </g>
    </g>
  </g>
</svg>
