<?xml version="1.0" standalone="no"?>
<!DOCTYPE svg PUBLIC "-//W3C//DTD SVG 20010904//EN"
 "http://www.w3.org/TR/2001/REC-SVG-20010904/DTD/svg10.dtd">
<svg version="1.0" xmlns="http://www.w3.org/2000/svg"
 width="360.000000pt" height="360.000000pt" viewBox="0 0 360.000000 360.000000"
 preserveAspectRatio="xMidYMid meet">

<g transform="translate(0.000000,360.000000) scale(0.100000,-0.100000)"
fill="#000000" stroke="none">
<path d="M2098 3388 c-79 -95 -562 -677 -1073 -1293 l-928 -1120 636 -3 c415
-1 637 -6 637 -12 0 -6 -92 -195 -205 -420 -113 -225 -205 -414 -205 -420 0
-7 291 -10 860 -10 l860 0 20 32 c58 96 841 1671 836 1684 -5 12 -124 14 -856
14 -467 0 -850 2 -850 5 0 2 95 388 211 856 116 468 208 853 205 856 -2 3 -69
-73 -148 -169z"/>
</g>
</svg>
