<?xml version="1.0" standalone="no"?>
<!DOCTYPE svg PUBLIC "-//W3C//DTD SVG 20010904//EN"
 "http://www.w3.org/TR/2001/REC-SVG-20010904/DTD/svg10.dtd">
<svg version="1.0" xmlns="http://www.w3.org/2000/svg"
 width="633.000000pt" height="100.000000pt" viewBox="0 0 633.000000 100.000000"
 preserveAspectRatio="xMidYMid meet">

<g transform="translate(0.000000,100.000000) scale(0.100000,-0.100000)"
fill="#000000" stroke="none">
<path d="M3367 843 c-4 -3 -7 -33 -7 -65 0 -53 3 -62 36 -98 26 -29 44 -40 65
-40 l29 0 0 105 0 105 -58 0 c-32 0 -62 -3 -65 -7z"/>
<path d="M4553 719 c-57 -7 -123 -42 -163 -84 l-24 -26 69 -63 c60 -55 71 -61
75 -45 4 17 14 10 65 -41 57 -58 65 -81 12 -40 -34 27 -37 26 -37 -15 0 -19
-3 -35 -6 -35 -4 0 -54 34 -112 75 -119 84 -120 84 -121 -11 -1 -72 24 -136
76 -194 59 -66 111 -92 194 -98 122 -9 230 52 286 162 35 67 38 177 6 247 -54
119 -181 186 -320 168z"/>
<path d="M170 430 l0 -290 135 0 135 0 0 290 0 290 -135 0 -135 0 0 -290z"/>
<path d="M460 511 c0 -239 -1 -236 75 -207 56 22 120 91 135 147 32 117 -53
251 -168 266 l-42 6 0 -212z"/>
<path d="M1302 433 l3 -288 135 0 135 0 0 285 0 285 -138 3 -137 3 2 -288z"/>
<path d="M1597 713 c-9 -8 -9 -279 0 -445 l6 -128 101 0 101 0 -82 82 -82 82
52 26 c125 62 155 213 64 317 -45 52 -137 89 -160 66z"/>
<path d="M1850 430 l0 -290 140 0 140 0 0 290 0 290 -140 0 -140 0 0 -290z"/>
<path d="M2140 430 l0 -290 140 0 c77 0 140 3 140 6 0 4 -39 49 -87 101 -49
52 -105 115 -126 139 l-39 44 39 44 c21 23 80 89 132 145 l93 101 -146 0 -146
0 0 -290z"/>
<path d="M2690 430 l0 -290 145 0 145 0 0 290 0 290 -145 0 -145 0 0 -290z"/>
<path d="M3140 660 c0 -33 -4 -60 -8 -60 -4 0 -32 25 -62 55 -30 30 -58 55
-62 55 -4 0 -8 -64 -8 -143 l0 -142 138 -145 c89 -93 142 -141 150 -136 9 5
12 80 12 292 l0 284 -80 0 -80 0 0 -60z"/>
<path d="M3770 430 l0 -290 135 0 135 0 0 290 0 290 -135 0 -135 0 0 -290z"/>
<path d="M4060 431 l0 -291 102 0 103 0 -83 83 -82 83 35 13 c82 29 134 106
135 197 0 98 -73 186 -167 200 l-43 7 0 -292z"/>
<path d="M5157 709 c-183 -41 -279 -246 -194 -416 42 -83 140 -152 215 -153
l32 0 0 284 c0 157 -3 287 -7 289 -5 2 -25 0 -46 -4z"/>
<path d="M5550 430 l0 -290 140 0 140 0 0 290 0 290 -140 0 -140 0 0 -290z"/>
<path d="M5840 430 l0 -290 140 0 c77 0 140 3 140 6 0 3 -55 66 -122 140 -68
74 -123 138 -123 144 0 5 58 72 128 150 l128 140 -146 0 -145 0 0 -290z"/>
<path d="M692 428 l3 -283 288 -3 c158 -1 287 1 287 6 0 9 -565 562 -574 562
-4 0 -5 -127 -4 -282z"/>
<path d="M5230 565 l0 -145 141 0 142 0 -6 49 c-3 27 -15 67 -26 88 -41 79
-145 152 -218 153 l-33 0 0 -145z"/>
<path d="M5230 264 l0 -127 46 7 c96 13 187 86 221 179 25 69 28 67 -127 67
l-140 0 0 -126z"/>
</g>
</svg>
